
<svg width="50px" height="50px" viewBox="0 0 50 50" version="1.1" xmlns="http://www.w3.org/2000/svg" xmlns:xlink="http://www.w3.org/1999/xlink">
    <!-- Generator: Sketch 47.1 (45422) - http://www.bohemiancoding.com/sketch -->
    <desc>Created with Sketch.</desc>
    <defs></defs>
    <g id="Page-1" stroke="none" stroke-width="1" fill="none" fill-rule="evenodd">
        <g id="Desktop-HD-Copy-4" transform="translate(-895.000000, -694.000000)" fill-rule="nonzero" fill="#000000">
            <g id="iconmonstr-download-17-copy" transform="translate(895.000000, 694.000000)">
                <path d="M16.6666667,41.6666667 L22.9166667,41.6666667 L22.9166667,31.25 L27.0833333,31.25 L27.0833333,41.6666667 L33.3333333,41.6666667 L25,50 L16.6666667,41.6666667 Z M40.58125,14.775 C40.1395833,6.54375 33.3458333,8.8817842e-16 25,8.8817842e-16 C16.6541667,8.8817842e-16 9.86041667,6.54375 9.41875,14.775 C4.06458333,15.7395833 0,20.4125 0,26.0416667 C0,32.36875 5.13125,37.5 11.4583333,37.5 L18.75,37.5 L18.75,33.3333333 L11.4583333,33.3333333 C7.4375,33.3333333 4.16666667,30.0625 4.16666667,26.0416667 C4.16666667,20.2145833 9.33125,18.05625 13.4020833,18.2916667 C13.0541667,9.50416667 18.0020833,4.16666667 25,4.16666667 C32.19375,4.16666667 37.2729167,9.99375 36.5979167,18.2916667 C40.2333333,18.1958333 45.8333333,19.85625 45.8333333,26.0416667 C45.8333333,30.0625 42.5625,33.3333333 38.5416667,33.3333333 L31.25,33.3333333 L31.25,37.5 L38.5416667,37.5 C44.86875,37.5 50,32.36875 50,26.0416667 C50,20.4125 45.9354167,15.7395833 40.58125,14.775 Z" id="Shape"></path>
            </g>
        </g>
    </g>
</svg>