
<svg width="50px" height="50px" viewBox="0 0 50 50" version="1.1" xmlns="http://www.w3.org/2000/svg" xmlns:xlink="http://www.w3.org/1999/xlink">
    <!-- Generator: Sketch 47.1 (45422) - http://www.bohemiancoding.com/sketch -->
    <desc>Created with Sketch.</desc>
    <defs></defs>
    <g id="Page-1" stroke="none" stroke-width="1" fill="none" fill-rule="evenodd">
        <g id="Desktop-HD" transform="translate(-1373.000000, -13.000000)" fill-rule="nonzero" fill="#000000">
            <g id="iconmonstr-location-22" transform="translate(1373.000000, 13.000000)">
                <path d="M25,4.16666667 C29.4395833,4.16666667 33.3333333,7.77083333 33.3333333,11.8791667 C33.3333333,16.15 29.7625,22.1729167 25,29.7145833 C20.2375,22.1729167 16.6666667,16.15 16.6666667,11.8791667 C16.6666667,7.77083333 20.5604167,4.16666667 25,4.16666667 Z M25,0 C18.4416667,0 12.5,5.31875 12.5,11.8791667 C12.5,18.4375 17.9208333,26.26875 25,37.5 C32.0791667,26.26875 37.5,18.4375 37.5,11.8791667 C37.5,5.31875 31.5604167,0 25,0 Z M25,16.6666667 C22.6979167,16.6666667 20.8333333,14.8020833 20.8333333,12.5 C20.8333333,10.1979167 22.6979167,8.33333333 25,8.33333333 C27.3020833,8.33333333 29.1666667,10.1979167 29.1666667,12.5 C29.1666667,14.8020833 27.3020833,16.6666667 25,16.6666667 Z M47.66875,11.45625 C47.66875,8.34791667 46.1291667,5.56041667 43.70625,3.64791667 L45.25,2.08125 C48.15625,4.375 50,7.71875 50,11.45625 C50,15.19375 48.15625,18.5395833 45.25,20.8333333 L43.70625,19.2645833 C46.1291667,17.3541667 47.66875,14.5645833 47.66875,11.45625 Z M40.625,16.1416667 L42.1666667,17.70625 C44.10625,16.1791667 45.3354167,13.9479167 45.3354167,11.45625 C45.3354167,8.96666667 44.10625,6.73333333 42.1666667,5.20625 L40.625,6.77083333 C42.0770833,7.91875 43.0020833,9.59166667 43.0020833,11.45625 C43.0020833,13.3208333 42.0770833,14.9958333 40.625,16.1416667 Z M6.29375,19.2645833 L4.75,20.8333333 C1.84375,18.5395833 8.8817842e-16,15.19375 8.8817842e-16,11.45625 C8.8817842e-16,7.71875 1.84375,4.375 4.75,2.08125 L6.29375,3.64791667 C3.87083333,5.56041667 2.33125,8.34791667 2.33125,11.45625 C2.33125,14.5645833 3.87083333,17.3541667 6.29375,19.2645833 Z M6.99791667,11.45625 C6.99791667,9.58958333 7.92083333,7.91875 9.375,6.77083333 L7.83333333,5.20625 C5.89375,6.73333333 4.66458333,8.96666667 4.66458333,11.45625 C4.66458333,13.9479167 5.89375,16.1791667 7.83333333,17.70625 L9.375,16.1416667 C7.92291667,14.9958333 6.99791667,13.3229167 6.99791667,11.45625 Z M41.6666667,41.6666667 C41.6666667,46.26875 34.20625,50 25,50 C15.79375,50 8.33333333,46.26875 8.33333333,41.6666667 C8.33333333,38.3291667 12.2666667,35.4583333 17.9333333,34.1270833 L20.3375,37.9270833 C19.5020833,38.06875 18.6583333,38.2083333 17.8833333,38.43125 C10.9833333,40.4083333 10.6895833,42.825 17.8395833,44.89375 C22.1895833,46.15 27.7916667,46.1541667 32.1604167,44.8916667 C39.7,42.7104167 38.7520833,40.1520833 31.6020833,38.29375 C30.9854167,38.1333333 30.3083333,38.0479167 29.6520833,37.9375 L32.0604167,34.1291667 C37.7333333,35.4583333 41.6666667,38.3291667 41.6666667,41.6666667 L41.6666667,41.6666667 Z" id="Shape"></path>
            </g>
        </g>
    </g>
</svg>