
<svg width="50px" height="50px" viewBox="0 0 50 50" version="1.1" xmlns="http://www.w3.org/2000/svg" xmlns:xlink="http://www.w3.org/1999/xlink">
    <!-- Generator: Sketch 47.1 (45422) - http://www.bohemiancoding.com/sketch -->
    <desc>Created with Sketch.</desc>
    <defs></defs>
    <g id="Page-1" stroke="none" stroke-width="1" fill="none" fill-rule="evenodd">
        <g id="Desktop-HD" transform="translate(-1309.000000, -13.000000)" fill="#000000">
            <g id="Group-4" transform="translate(1309.000000, 13.000000)">
                <g id="Group-3-Copy">
                    <path d="M5.12083333,18.775 C4.50208333,20.7479167 4.16666667,22.8479167 4.16666667,25.025 C4.16666667,36.525 13.5020833,45.8583333 25,45.8583333 C36.5,45.8583333 45.8333333,36.525 45.8333333,25.025 C45.8333333,13.5270833 36.5,4.19166667 25,4.19166667 C20.58125,4.19166667 16.49375,5.58333333 13.11875,7.93333333 L16.6666667,12.525 L2.95833333,12.525 L6.98958333,0 L10.56875,4.63125 C14.6479167,1.7375 19.6229167,0.025 25,0.025 C38.7979167,0.025 50,11.2270833 50,25.025 C50,38.8229167 38.7979167,50 25,50 C11.2020833,50 0,38.8229167 0,25.025 C0,22.8666667 0.275,20.7729167 0.789583333,18.775 L5.12083333,18.775 Z" id="Shape"></path>
                </g>
                <g id="iconmonstr-video-camera-1" transform="translate(12.000000, 18.000000)" fill-rule="nonzero">
                    <path d="M19.3333333,12.0833333 C19.3333333,13.4173333 18.2506667,14.5 16.9166667,14.5 L2.41666667,14.5 C1.08266667,14.5 0,13.4173333 0,12.0833333 L0,2.41666667 C0,1.08266667 1.08266667,0 2.41666667,0 L16.9166667,0 C18.2506667,0 19.3333333,1.08266667 19.3333333,2.41666667 L19.3333333,12.0833333 Z M29,0 L21.75,5.10279167 L21.75,9.39720833 L29,14.5 L29,0 Z" id="Shape"></path>
                </g>
            </g>
        </g>
    </g>
</svg>