
<svg width="50px" height="38px" viewBox="0 0 50 38" version="1.1" xmlns="http://www.w3.org/2000/svg" xmlns:xlink="http://www.w3.org/1999/xlink">
    <!-- Generator: Sketch 47.1 (45422) - http://www.bohemiancoding.com/sketch -->
    <desc>Created with Sketch.</desc>
    <defs></defs>
    <g id="Page-1" stroke="none" stroke-width="1" fill="none" fill-rule="evenodd">
        <g id="Desktop-HD" transform="translate(-112.000000, -743.000000)" fill-rule="nonzero" fill="#000000">
            <g id="iconmonstr-picture-1" transform="translate(112.000000, 743.000000)">
                <path d="M10.4166667,11.4583333 C10.4166667,9.73333333 11.8166667,8.33333333 13.5416667,8.33333333 C15.2666667,8.33333333 16.6666667,9.73333333 16.6666667,11.4583333 C16.6666667,13.1854167 15.2666667,14.5833333 13.5416667,14.5833333 C11.8166667,14.5833333 10.4166667,13.1854167 10.4166667,11.4583333 Z M29.1666667,12.5 L23.91875,20.8333333 L18.75,16.75 L10.4166667,29.1666667 L39.5833333,29.1666667 L29.1666667,12.5 Z M45.8333333,4.16666667 L45.8333333,33.3333333 L4.16666667,33.3333333 L4.16666667,4.16666667 L45.8333333,4.16666667 Z M50,0 L0,0 L0,37.5 L50,37.5 L50,0 Z" id="Shape"></path>
            </g>
        </g>
    </g>
</svg>