
<svg width="50px" height="51px" viewBox="0 0 50 51" version="1.1" xmlns="http://www.w3.org/2000/svg" xmlns:xlink="http://www.w3.org/1999/xlink">
    <!-- Generator: Sketch 47.1 (45422) - http://www.bohemiancoding.com/sketch -->
    <desc>Created with Sketch.</desc>
    <defs></defs>
    <g id="Page-1" stroke="none" stroke-width="1" fill="none" fill-rule="evenodd">
        <g id="Desktop-HD" transform="translate(-38.000000, -647.000000)" fill-rule="nonzero" fill="#000000">
            <g id="iconmonstr-paintbrush-7" transform="translate(38.000000, 645.000000)">
                <path d="M18.74375,31.21875 C18.7645833,33.51875 16.9104167,35.4020833 14.60625,35.4166667 C12.3041667,35.4354167 10.4291667,33.5833333 10.4166667,31.2833333 C10.3958333,28.98125 12.2479167,27.10625 14.5458333,27.0833333 C16.85,27.06875 18.73125,28.9229167 18.74375,31.21875 Z M16.70625,22.9145833 C14.40625,22.93125 12.5229167,21.08125 12.5083333,18.775 C12.4895833,16.4770833 14.3354167,14.6 16.6416667,14.5854167 C18.9375,14.5645833 20.825,16.4125 20.8333333,18.7145833 C20.8583333,21.0208333 19,22.89375 16.70625,22.9145833 Z M33.3333333,14.5520833 C33.3416667,16.8479167 31.4979167,18.7354167 29.1979167,18.75 C26.89375,18.7708333 25.0145833,16.91875 25,14.61875 C24.9770833,12.3145833 26.8291667,10.4395833 29.1354167,10.4208333 C31.4291667,10.4083333 33.3125,12.25625 33.3333333,14.5520833 Z M8.33333333,47.5666667 C17.8895833,48.3583333 14.4666667,38.2083333 23.3083333,38.1145833 L27.1375,41.3104167 C28.0916667,52.8458333 13.98125,55.41875 8.33333333,47.5666667 Z M37.6354167,32.74375 C40.6083333,28.0791667 49.8145833,12.4354167 49.8145833,12.4354167 C50.55,11.1375 48.9208333,9.78333333 47.7833333,10.7416667 C47.7833333,10.7416667 34.0916667,22.6458333 30.0520833,26.41875 C26.8604167,29.4020833 26.8458333,30.7645833 25.8125,35.6833333 L29.3125,38.6 C33.9520833,36.69375 35.2875,36.4333333 37.6354167,32.74375 Z M11.3395833,42.75625 C6.99791667,38.9645833 4.21458333,33.425 4.16666667,27.2416667 C4.075,15.7625 13.3458333,6.34583333 24.8333333,6.25208333 C32.8291667,6.20833333 38.33125,10.2208333 38.3666667,13.4333333 L41.83125,10.4 C39.7270833,5.76875 33.11875,1.97291667 24.7979167,2.08333333 C11,2.19791667 -0.108333333,13.4708333 -7.40152297e-15,27.275 C0.0479166667,33.3416667 2.25625,38.8791667 5.88125,43.18125 C7.87708333,44.20625 10.3041667,43.8666667 11.3395833,42.75625 Z M38,38.7854167 C40.20625,42.8895833 35.1854167,45.80625 30.6145833,47.1020833 C29.98125,49.0020833 28.9416667,50.6875 27.7520833,51.9166667 C38.7,50.6854167 46.6291667,42.95 40.80625,35.48125 C39.85,36.9083333 38.9375,37.975 38,38.7854167 L38,38.7854167 Z" id="Shape"></path>
            </g>
        </g>
    </g>
</svg>